<svg  viewBox="0 0 26 26" fill="none" xmlns="http://www.w3.org/2000/svg">
<path id="Vector" d="M24 0H2C1.46957 0 0.960859 0.249025 0.585786 0.692293C0.210714 1.13556 0 1.73676 0 2.36364V23.6364C0 24.2632 0.210714 24.8644 0.585786 25.3077C0.960859 25.751 1.46957 26 2 26H24C24.5304 26 25.0391 25.751 25.4142 25.3077C25.7893 24.8644 26 24.2632 26 23.6364V2.36364C26 1.73676 25.7893 1.13556 25.4142 0.692293C25.0391 0.249025 24.5304 0 24 0ZM24 23.6364H2V2.36364H24V23.6364ZM20 8.27273C20 8.58616 19.8946 8.88676 19.7071 9.1084C19.5196 9.33003 19.2652 9.45455 19 9.45455H7C6.73478 9.45455 6.48043 9.33003 6.29289 9.1084C6.10536 8.88676 6 8.58616 6 8.27273C6 7.95929 6.10536 7.65869 6.29289 7.43706C6.48043 7.21542 6.73478 7.09091 7 7.09091H19C19.2652 7.09091 19.5196 7.21542 19.7071 7.43706C19.8946 7.65869 20 7.95929 20 8.27273ZM20 13C20 13.3134 19.8946 13.614 19.7071 13.8357C19.5196 14.0573 19.2652 14.1818 19 14.1818H7C6.73478 14.1818 6.48043 14.0573 6.29289 13.8357C6.10536 13.614 6 13.3134 6 13C6 12.6866 6.10536 12.386 6.29289 12.1643C6.48043 11.9427 6.73478 11.8182 7 11.8182H19C19.2652 11.8182 19.5196 11.9427 19.7071 12.1643C19.8946 12.386 20 12.6866 20 13ZM20 17.7273C20 18.0407 19.8946 18.3413 19.7071 18.5629C19.5196 18.7846 19.2652 18.9091 19 18.9091H7C6.73478 18.9091 6.48043 18.7846 6.29289 18.5629C6.10536 18.3413 6 18.0407 6 17.7273C6 17.4138 6.10536 17.1132 6.29289 16.8916C6.48043 16.67 6.73478 16.5455 7 16.5455H19C19.2652 16.5455 19.5196 16.67 19.7071 16.8916C19.8946 17.1132 20 17.4138 20 17.7273Z" fill="currentColor"/>
</svg>
