<svg  viewBox="0 0 26 26" fill="none" xmlns="http://www.w3.org/2000/svg">
<path id="Vector" d="M25.705 18.9933C24.9533 17.7983 23.8359 14.4169 23.8359 10.0004C23.8359 7.34815 22.6943 4.8045 20.6623 2.92906C18.6303 1.05361 15.8744 0 13.0007 0C10.127 0 7.37102 1.05361 5.33903 2.92906C3.30703 4.8045 2.16547 7.34815 2.16547 10.0004C2.16547 14.4181 1.04674 17.7983 0.295044 18.9933C0.103085 19.2971 0.00132094 19.6423 1.27733e-05 19.994C-0.00129539 20.3457 0.0978992 20.6915 0.287593 20.9965C0.477287 21.3015 0.750772 21.555 1.08047 21.7314C1.41016 21.9077 1.78441 22.0007 2.16547 22.0009H7.69278C7.94276 23.1299 8.60758 24.1446 9.57477 24.8733C10.542 25.602 11.7522 26 13.0007 26C14.2492 26 15.4594 25.602 16.4266 24.8733C17.3938 24.1446 18.0586 23.1299 18.3086 22.0009H23.8359C24.2168 22.0005 24.5909 21.9073 24.9204 21.7309C25.2499 21.5545 25.5232 21.301 25.7127 20.996C25.9023 20.691 26.0014 20.3453 26 19.9937C25.9986 19.6421 25.8969 19.297 25.705 18.9933ZM13.0007 24.001C12.3286 24.0008 11.6732 23.8084 11.1246 23.4502C10.5759 23.0921 10.161 22.5857 9.93702 22.0009H16.0643C15.8403 22.5857 15.4254 23.0921 14.8768 23.4502C14.3281 23.8084 13.6727 24.0008 13.0007 24.001ZM2.16547 20.0009C3.20836 18.3458 4.33251 14.5106 4.33251 10.0004C4.33251 7.87861 5.24576 5.84369 6.87136 4.34333C8.49695 2.84298 10.7017 2.00009 13.0007 2.00009C15.2996 2.00009 17.5044 2.84298 19.13 4.34333C20.7556 5.84369 21.6688 7.87861 21.6688 10.0004C21.6688 14.5069 22.7903 18.342 23.8359 20.0009H2.16547Z" fill="currentColor"/>
</svg>
