<svg xmlns="http://www.w3.org/2000/svg" viewBox="0 0 20 20" fill="none">
  <path d="M10 4C11.11 4 12 3.1 12 2C12 1.62 11.9 1.27 11.71 0.97L10 -2L8.29 0.97C8.1 1.27 8 1.62 8 2C8 3.1 8.9 4 10 4ZM14.6 13.99L13.53 12.92L12.45 13.99C11.15 15.29 8.87 15.3 7.56 13.99L6.49 12.92L5.4 13.99C4.75 14.64 3.88 15 2.96 15C2.23 15 1.56 14.77 1 14.39V19C1 19.55 1.45 20 2 20H18C18.55 20 19 19.55 19 19V14.39C18.44 14.77 17.77 15 17.04 15C16.12 15 15.25 14.64 14.6 13.99ZM16 7H11V5H9V7H4C2.34 7 1 8.34 1 10V11.54C1 12.62 1.88 13.5 2.96 13.5C3.48 13.5 3.98 13.3 4.34 12.93L6.48 10.8L8.61 12.93C9.35 13.67 10.64 13.67 11.38 12.93L13.52 10.8L15.65 12.93C16.02 13.3 16.51 13.5 17.03 13.5C18.11 13.5 18.99 12.62 18.99 11.54V10C19 8.34 17.66 7 16 7Z" fill="currentColor"/>
</svg>