<svg  viewBox="0 0 26 26" fill="none" xmlns="http://www.w3.org/2000/svg">
<path id="Vector" d="M23.8333 2H20.5833V1C20.5833 0.734784 20.4692 0.48043 20.266 0.292893C20.0629 0.105357 19.7873 0 19.5 0C19.2127 0 18.9371 0.105357 18.734 0.292893C18.5308 0.48043 18.4167 0.734784 18.4167 1V2H7.58333V1C7.58333 0.734784 7.4692 0.48043 7.26603 0.292893C7.06287 0.105357 6.78732 0 6.5 0C6.21268 0 5.93713 0.105357 5.73397 0.292893C5.5308 0.48043 5.41667 0.734784 5.41667 1V2H2.16667C1.59203 2 1.04093 2.21071 0.634602 2.58579C0.228273 2.96086 0 3.46957 0 4V24C0 24.5304 0.228273 25.0391 0.634602 25.4142C1.04093 25.7893 1.59203 26 2.16667 26H23.8333C24.408 26 24.9591 25.7893 25.3654 25.4142C25.7717 25.0391 26 24.5304 26 24V4C26 3.46957 25.7717 2.96086 25.3654 2.58579C24.9591 2.21071 24.408 2 23.8333 2ZM5.41667 4V5C5.41667 5.26522 5.5308 5.51957 5.73397 5.70711C5.93713 5.89464 6.21268 6 6.5 6C6.78732 6 7.06287 5.89464 7.26603 5.70711C7.4692 5.51957 7.58333 5.26522 7.58333 5V4H18.4167V5C18.4167 5.26522 18.5308 5.51957 18.734 5.70711C18.9371 5.89464 19.2127 6 19.5 6C19.7873 6 20.0629 5.89464 20.266 5.70711C20.4692 5.51957 20.5833 5.26522 20.5833 5V4H23.8333V8H2.16667V4H5.41667ZM23.8333 24H2.16667V10H23.8333V24ZM10.8333 13V21C10.8333 21.2652 10.7192 21.5196 10.516 21.7071C10.3129 21.8946 10.0373 22 9.75 22C9.46268 22 9.18713 21.8946 8.98397 21.7071C8.7808 21.5196 8.66667 21.2652 8.66667 21V14.6175L8.06813 14.895C7.81098 15.0137 7.51328 15.0332 7.24053 14.9493C6.96779 14.8654 6.74232 14.6849 6.61375 14.4475C6.48518 14.2101 6.46402 13.9353 6.55493 13.6836C6.64585 13.4318 6.84139 13.2237 7.09854 13.105L9.26521 12.105C9.43043 12.0287 9.61406 11.9926 9.79863 12.0003C9.9832 12.0079 10.1626 12.059 10.3197 12.1487C10.4769 12.2384 10.6066 12.3637 10.6964 12.5127C10.7863 12.6617 10.8335 12.8295 10.8333 13ZM18.8446 16.8062L16.25 20H18.4167C18.704 20 18.9795 20.1054 19.1827 20.2929C19.3859 20.4804 19.5 20.7348 19.5 21C19.5 21.2652 19.3859 21.5196 19.1827 21.7071C18.9795 21.8946 18.704 22 18.4167 22H14.0833C13.8821 22 13.6849 21.9483 13.5138 21.8507C13.3427 21.753 13.2043 21.6133 13.1144 21.4472C13.0244 21.2811 12.9863 21.0952 13.0044 20.9102C13.0224 20.7252 13.096 20.5486 13.2167 20.4L17.114 15.6038C17.2026 15.4948 17.2662 15.3703 17.3008 15.2379C17.3355 15.1054 17.3404 14.9678 17.3154 14.8336C17.2904 14.6993 17.2359 14.5712 17.1553 14.457C17.0747 14.3429 16.9697 14.2452 16.8467 14.1699C16.7237 14.0945 16.5853 14.0432 16.44 14.019C16.2948 13.9949 16.1457 13.9983 16.002 14.0292C15.8582 14.0602 15.7228 14.1179 15.6041 14.1988C15.4854 14.2798 15.3858 14.3823 15.3116 14.5C15.2425 14.6174 15.1487 14.7208 15.0357 14.8041C14.9227 14.8875 14.7927 14.9491 14.6535 14.9853C14.5142 15.0215 14.3685 15.0316 14.225 15.0151C14.0814 14.9985 13.943 14.9555 13.8177 14.8887C13.6924 14.8219 13.5829 14.7327 13.4956 14.6262C13.4083 14.5197 13.345 14.3981 13.3095 14.2687C13.2739 14.1392 13.2668 14.0045 13.2885 13.8725C13.3102 13.7405 13.3604 13.6138 13.436 13.5C13.7939 12.9284 14.346 12.4817 15.0069 12.2291C15.6677 11.9766 16.4004 11.9323 17.0912 12.1032C17.7821 12.2741 18.3926 12.6506 18.8281 13.1743C19.2636 13.6981 19.4998 14.3398 19.5 15C19.5023 15.6522 19.272 16.2869 18.8446 16.8062Z" fill="currentColor"/>
</svg>
