<svg xmlns="http://www.w3.org/2000/svg" viewBox="0 0 16 16" fill="none">
  <path d="M12.25 8.49267L7.12135 13.6213C6.55874 14.1839 5.79567 14.5 5.00002 14.5C4.20436 14.5 3.4413 14.1839 2.87869 13.6213C2.31607 13.0587 2 12.2957 2 11.5C2 10.7043 2.31607 9.94128 2.87869 9.37867L10.172 2.08533C10.3578 1.89964 10.5783 1.75236 10.821 1.6519C11.0637 1.55144 11.3238 1.49977 11.5865 1.49983C11.8492 1.49989 12.1092 1.55169 12.3519 1.65226C12.5945 1.75284 12.815 1.90022 13.0007 2.086C13.1864 2.27178 13.3337 2.49231 13.4341 2.735C13.5346 2.9777 13.5863 3.23781 13.5862 3.50047C13.5861 3.76314 13.5343 4.02322 13.4338 4.26587C13.3332 4.50852 13.1858 4.72898 13 4.91467L5.70135 12.2133C5.51201 12.3949 5.25893 12.494 4.99665 12.4907C4.73437 12.4874 4.4839 12.3812 4.29922 12.1949C4.11453 12.0086 4.01042 11.7573 4.00933 11.495C4.00823 11.2327 4.11023 10.9805 4.29335 10.7927L9.50002 5.586M5.70735 12.2067L5.70069 12.2133" stroke="currentColor" stroke-linecap="round" stroke-linejoin="round"/>
</svg>