<svg xmlns="http://www.w3.org/2000/svg" viewBox="0 0 16 15" fill="none">
<path d="M5.4953 5.97972C5.4953 6.05092 5.46702 6.1192 5.41667 6.16954C5.36633 6.21989 5.29805 6.24817 5.22685 6.24817C5.15565 6.24817 5.08737 6.21989 5.03703 6.16954C4.98668 6.1192 4.9584 6.05092 4.9584 5.97972C4.9584 5.90852 4.98668 5.84024 5.03703 5.7899C5.08737 5.73955 5.15565 5.71127 5.22685 5.71127C5.29805 5.71127 5.36633 5.73955 5.41667 5.7899C5.46702 5.84024 5.4953 5.90852 5.4953 5.97972ZM5.4953 5.97972H5.22685M8.17981 5.97972C8.17981 6.05092 8.15153 6.1192 8.10118 6.16954C8.05084 6.21989 7.98256 6.24817 7.91136 6.24817C7.84016 6.24817 7.77188 6.21989 7.72153 6.16954C7.67119 6.1192 7.64291 6.05092 7.64291 5.97972C7.64291 5.90852 7.67119 5.84024 7.72153 5.7899C7.77188 5.73955 7.84016 5.71127 7.91136 5.71127C7.98256 5.71127 8.05084 5.73955 8.10118 5.7899C8.15153 5.84024 8.17981 5.90852 8.17981 5.97972ZM8.17981 5.97972H7.91136M10.8643 5.97972C10.8643 6.05092 10.836 6.1192 10.7857 6.16954C10.7353 6.21989 10.6671 6.24817 10.5959 6.24817C10.5247 6.24817 10.4564 6.21989 10.406 6.16954C10.3557 6.1192 10.3274 6.05092 10.3274 5.97972C10.3274 5.90852 10.3557 5.84024 10.406 5.7899C10.4564 5.73955 10.5247 5.71127 10.5959 5.71127C10.6671 5.71127 10.7353 5.73955 10.7857 5.7899C10.836 5.84024 10.8643 5.90852 10.8643 5.97972ZM10.8643 5.97972H10.5959M0.931641 8.13448C0.931641 9.27987 1.73556 10.2778 2.8695 10.4446C3.64765 10.5591 4.43367 10.6472 5.22685 10.7087V14.0332L8.22204 11.0388C8.37034 10.891 8.56973 10.806 8.77899 10.8011C10.1761 10.7667 11.5698 10.6477 12.9525 10.4446C14.0872 10.2778 14.8911 9.28059 14.8911 8.13377V3.82567C14.8911 2.67885 14.0872 1.68165 12.9532 1.51485C11.2838 1.26982 9.59868 1.14708 7.91136 1.14761C6.199 1.14761 4.51528 1.27288 2.8695 1.51485C1.73556 1.68165 0.931641 2.67957 0.931641 3.82567V8.13377V8.13448Z" stroke="currentColor" stroke-width="1.0738" stroke-linecap="round" stroke-linejoin="round"/>
</svg>