<svg  viewBox="0 0 26 26" fill="none" xmlns="http://www.w3.org/2000/svg">
<path id="Vector" d="M25.9999 21.8795V25.0714C25.9999 25.3177 25.8477 25.5539 25.5769 25.728C25.306 25.9022 24.9386 26 24.5555 26C24.1724 26 23.805 25.9022 23.5341 25.728C23.2632 25.5539 23.111 25.3177 23.111 25.0714V21.8795C23.1181 20.4988 22.5234 19.1445 21.3944 17.97C20.2653 16.7955 18.6471 15.8478 16.723 15.2344L7.9842 12.4266C5.57927 11.6598 3.55659 10.4752 2.14543 9.00718C0.734269 7.53911 -0.00892891 5.84627 8.09577e-05 4.12054V0.928571C8.09577e-05 0.682299 0.152262 0.446113 0.423147 0.271972C0.694031 0.0978313 1.06143 0 1.44452 0C1.8276 0 2.195 0.0978313 2.46589 0.271972C2.73677 0.446113 2.88895 0.682299 2.88895 0.928571V4.12054C2.88187 5.50119 3.47656 6.85552 4.60561 8.03001C5.73466 9.20449 7.35292 10.1522 9.27697 10.7656L18.0158 13.5734C20.4207 14.3402 22.4434 15.5248 23.8546 16.9928C25.2657 18.4609 26.0089 20.1537 25.9999 21.8795ZM18.7777 21.3571H2.91965C2.98913 20.7246 3.18514 20.1004 3.50284 19.5H16.6309C17.014 19.5 17.3814 19.4022 17.6523 19.228C17.9232 19.0539 18.0754 18.8177 18.0754 18.5714C18.0754 18.3252 17.9232 18.089 17.6523 17.9148C17.3814 17.7407 17.014 17.6429 16.6309 17.6429H4.95811C5.68294 16.9693 6.57682 16.3778 7.60323 15.8925C7.7564 15.8203 7.88596 15.7295 7.98451 15.6251C8.08305 15.5207 8.14866 15.4049 8.17758 15.2843C8.2065 15.1636 8.19817 15.0405 8.15306 14.9219C8.10796 14.8033 8.02695 14.6915 7.91468 14.5931C7.80241 14.4946 7.66107 14.4113 7.49873 14.348C7.33639 14.2846 7.15623 14.2424 6.96854 14.2239C6.78084 14.2053 6.58929 14.2106 6.40481 14.2396C6.22033 14.2686 6.04655 14.3207 5.89338 14.3929C4.06876 15.2575 2.58509 16.3853 1.56157 17.6855C0.538055 18.9858 0.0032335 20.4222 8.09577e-05 21.8795V25.0714C8.09577e-05 25.3177 0.152262 25.5539 0.423147 25.728C0.694031 25.9022 1.06143 26 1.44452 26C1.8276 26 2.195 25.9022 2.46589 25.728C2.73677 25.5539 2.88895 25.3177 2.88895 25.0714V23.2143H18.7777C19.1608 23.2143 19.5282 23.1165 19.7991 22.9423C20.07 22.7682 20.2222 22.532 20.2222 22.2857C20.2222 22.0394 20.07 21.8033 19.7991 21.6291C19.5282 21.455 19.1608 21.3571 18.7777 21.3571ZM24.5555 0C24.1724 0 23.805 0.0978313 23.5341 0.271972C23.2632 0.446113 23.111 0.682299 23.111 0.928571V2.78571H7.22226C6.83917 2.78571 6.47177 2.88355 6.20089 3.05769C5.93 3.23183 5.77782 3.46801 5.77782 3.71429C5.77782 3.96056 5.93 4.19674 6.20089 4.37088C6.47177 4.54503 6.83917 4.64286 7.22226 4.64286H23.0804C23.0109 5.27544 22.8149 5.89963 22.4972 6.5H9.36905C8.98596 6.5 8.61856 6.59783 8.34768 6.77197C8.0768 6.94611 7.92461 7.1823 7.92461 7.42857C7.92461 7.67484 8.0768 7.91103 8.34768 8.08517C8.61856 8.25931 8.98596 8.35714 9.36905 8.35714H21.0419C20.3171 9.03074 19.4232 9.62224 18.3968 10.1075C18.2438 10.1797 18.1145 10.2705 18.0162 10.3748C17.9179 10.4791 17.8524 10.5948 17.8237 10.7154C17.7949 10.836 17.8034 10.959 17.8486 11.0774C17.8938 11.1959 17.9748 11.3074 18.0871 11.4058C18.3139 11.6043 18.654 11.7368 19.0327 11.7742C19.2203 11.7927 19.4116 11.7872 19.5959 11.7582C19.7801 11.7291 19.9537 11.677 20.1066 11.6048C21.9307 10.7404 23.4141 9.61297 24.4376 8.31317C25.4611 7.01337 25.9962 5.57738 25.9999 4.12054V0.928571C25.9999 0.682299 25.8477 0.446113 25.5769 0.271972C25.306 0.0978313 24.9386 0 24.5555 0Z" fill="currentColor"/>
</svg>
