<svg  viewBox="0 0 26 26" fill="none" xmlns="http://www.w3.org/2000/svg">
<path id="Vector" d="M6.51128 13.0355C6.51826 15.6658 5.92762 18.2613 4.78653 20.6149C4.73206 20.7369 4.65433 20.8464 4.55795 20.937C4.46157 21.0275 4.3485 21.0972 4.22545 21.1419C4.1024 21.1866 3.97188 21.2054 3.84163 21.1972C3.71138 21.189 3.58406 21.154 3.46721 21.0942C3.35036 21.0344 3.24637 20.9511 3.16142 20.8492C3.07646 20.7473 3.01226 20.6288 2.97263 20.5009C2.933 20.3729 2.91874 20.2381 2.93071 20.1044C2.94268 19.9707 2.98062 19.8408 3.04229 19.7225C4.0484 17.6458 4.56895 15.3559 4.56241 13.0355C4.56012 11.6824 4.85467 10.3462 5.42411 9.12648C5.99354 7.9068 6.82316 6.83511 7.85113 5.99132C8.05287 5.8251 8.31052 5.74817 8.56738 5.77743C8.82425 5.8067 9.0593 5.93977 9.22082 6.14737C9.38235 6.35497 9.45711 6.62009 9.42867 6.88442C9.40023 7.14874 9.27092 7.39062 9.06918 7.55683C8.26946 8.21292 7.62407 9.04639 7.18116 9.99504C6.73825 10.9437 6.50926 11.983 6.51128 13.0355ZM13.3323 12.0328C13.0739 12.0328 12.826 12.1384 12.6433 12.3265C12.4606 12.5145 12.3579 12.7696 12.3579 13.0355C12.3577 16.9421 11.3938 20.7848 9.55639 24.2034C9.43105 24.4361 9.40067 24.7105 9.47194 24.9663C9.54321 25.222 9.71029 25.4381 9.93642 25.5671C10.1626 25.6961 10.4292 25.7274 10.6777 25.654C10.9263 25.5807 11.1363 25.4088 11.2617 25.1761C13.2587 21.4596 14.3065 17.2823 14.3068 13.0355C14.3068 12.7696 14.2041 12.5145 14.0214 12.3265C13.8386 12.1384 13.5908 12.0328 13.3323 12.0328ZM13.3323 8.02185C12.0402 8.02185 10.8009 8.55007 9.88718 9.49031C8.97347 10.4306 8.46015 11.7058 8.46015 13.0355C8.46015 13.3014 8.56282 13.5565 8.74556 13.7445C8.9283 13.9326 9.17615 14.0382 9.43459 14.0382C9.69303 14.0382 9.94088 13.9326 10.1236 13.7445C10.3064 13.5565 10.409 13.3014 10.409 13.0355C10.409 12.2377 10.717 11.4725 11.2652 10.9084C11.8135 10.3442 12.557 10.0273 13.3323 10.0273C14.1076 10.0273 14.8512 10.3442 15.3994 10.9084C15.9477 11.4725 16.2556 12.2377 16.2556 13.0355C16.2657 17.0226 15.4123 20.9618 13.7574 24.5669C13.7028 24.6863 13.6716 24.8156 13.6655 24.9475C13.6595 25.0793 13.6787 25.2111 13.7221 25.3353C13.7656 25.4595 13.8323 25.5736 13.9186 25.6713C14.005 25.7689 14.1091 25.8481 14.2252 25.9043C14.3412 25.9605 14.4669 25.9926 14.595 25.9989C14.7231 26.0051 14.8512 25.9853 14.9719 25.9406C15.0925 25.8959 15.2035 25.8272 15.2984 25.7384C15.3932 25.6496 15.4702 25.5424 15.5248 25.423C17.3011 21.5499 18.2165 17.3182 18.2045 13.0355C18.2045 11.7058 17.6912 10.4306 16.7775 9.49031C15.8638 8.55007 14.6245 8.02185 13.3323 8.02185ZM13.3323 0C9.97375 0.00364971 6.75374 1.3782 4.37886 3.82204C2.00398 6.26588 0.668213 9.57939 0.664667 13.0355C0.666475 14.2877 0.460508 15.5309 0.0556442 16.7118C-0.0304474 16.9626 -0.0161885 17.2383 0.0952842 17.4783C0.206757 17.7183 0.406312 17.9029 0.65005 17.9915C0.893788 18.0801 1.16174 18.0654 1.39497 17.9507C1.62819 17.836 1.80758 17.6306 1.89367 17.3798C2.37173 15.9843 2.61516 14.5152 2.61354 13.0355C2.61354 10.1102 3.74284 7.30462 5.753 5.23608C7.76316 3.16755 10.4895 2.00546 13.3323 2.00546C16.1751 2.00546 18.9015 3.16755 20.9117 5.23608C22.9218 7.30462 24.0511 10.1102 24.0511 13.0355C24.0516 15.3265 23.8358 17.6122 23.4068 19.8603C23.382 19.9895 23.3821 20.1225 23.4073 20.2517C23.4324 20.3808 23.482 20.5036 23.5533 20.613C23.6245 20.7224 23.716 20.8163 23.8226 20.8893C23.9291 20.9624 24.0486 21.0131 24.1741 21.0385C24.2364 21.0509 24.2996 21.0572 24.3629 21.0573C24.5884 21.0571 24.8069 20.9764 24.981 20.829C25.1551 20.6815 25.2742 20.4765 25.3179 20.2489C25.7717 17.8728 26.0001 15.457 26 13.0355C25.9961 9.57949 24.6603 6.26617 22.2855 3.82241C19.9106 1.37864 16.6908 0.00398082 13.3323 0ZM9.2397 16.065C8.98698 16.0133 8.72463 16.0666 8.51006 16.2135C8.29548 16.3603 8.14615 16.5886 8.09474 16.8484C7.69935 18.8509 6.99144 20.7743 5.99849 22.5439C5.86927 22.7743 5.83427 23.048 5.9012 23.3049C5.96813 23.5619 6.1315 23.7809 6.35537 23.9139C6.57924 24.0468 6.84528 24.0829 7.09495 24.014C7.34462 23.9451 7.55748 23.777 7.6867 23.5466C8.78402 21.5897 9.5656 19.4627 10.001 17.2482C10.0266 17.1191 10.0272 16.986 10.0028 16.8566C9.97837 16.7273 9.92942 16.6041 9.85871 16.4942C9.78801 16.3843 9.69694 16.2898 9.59073 16.2162C9.48451 16.1425 9.36523 16.0912 9.2397 16.065ZM13.3323 4.01092C12.9659 4.011 12.5997 4.03445 12.2361 4.08111C11.9845 4.11999 11.7576 4.2586 11.604 4.46732C11.4503 4.67605 11.3822 4.93833 11.414 5.19811C11.4458 5.45789 11.5751 5.69456 11.7742 5.85754C11.9734 6.02051 12.2266 6.09687 12.4797 6.07028C13.4397 5.94745 14.414 6.03583 15.3383 6.32958C16.2626 6.62333 17.1157 7.11574 17.8412 7.77423C18.5666 8.43272 19.1479 9.24226 19.5465 10.1493C19.9451 11.0563 20.152 12.0401 20.1534 13.0355C20.1531 14.3344 20.075 15.6321 19.9195 16.9211C19.9024 17.0522 19.9107 17.1854 19.9439 17.3132C19.9771 17.441 20.0345 17.5608 20.1128 17.6656C20.1912 17.7705 20.2889 17.8584 20.4004 17.9242C20.5119 17.99 20.6349 18.0325 20.7624 18.0492C20.8028 18.0542 20.8435 18.0567 20.8842 18.0567C21.1212 18.0561 21.3499 17.9668 21.5274 17.8053C21.705 17.6438 21.8193 17.4212 21.8489 17.1793C22.0132 15.807 22.0946 14.4256 22.0925 13.043C22.0919 10.6508 21.1693 8.35649 19.527 6.66329C17.8848 4.97009 15.657 4.01623 13.3323 4.01092ZM20.3885 20.0859C20.2645 20.053 20.1354 20.0454 20.0086 20.0638C19.8818 20.0822 19.7598 20.1261 19.6495 20.193C19.5392 20.26 19.4428 20.3486 19.3659 20.4539C19.2889 20.5592 19.2328 20.6791 19.2009 20.8067C19.023 21.5199 18.8172 22.2356 18.5919 22.9375C18.5094 23.189 18.5272 23.4638 18.6414 23.7018C18.7555 23.9398 18.9567 24.1216 19.2009 24.2072C19.3009 24.2422 19.4058 24.26 19.5115 24.2598C19.7156 24.2597 19.9146 24.1935 20.0803 24.0707C20.2459 23.9479 20.3699 23.7747 20.4348 23.5755C20.6784 22.8334 20.8964 22.0714 21.0864 21.313C21.1191 21.1855 21.1269 21.0525 21.1096 20.9218C21.0922 20.7911 21.05 20.6652 20.9853 20.5513C20.9205 20.4375 20.8346 20.3378 20.7324 20.2582C20.6302 20.1786 20.5137 20.1204 20.3897 20.0872L20.3885 20.0859Z" fill="currentColor"/>
</svg>
