<svg  viewBox="0 0 26 26" fill="none" xmlns="http://www.w3.org/2000/svg">
<path id="Vector" d="M13 0C10.4288 0 7.91543 0.762437 5.77759 2.19089C3.63975 3.61935 1.97351 5.64967 0.989572 8.02511C0.0056327 10.4006 -0.251811 13.0144 0.249797 15.5362C0.751405 18.0579 1.98953 20.3743 3.80762 22.1924C5.6257 24.0105 7.94208 25.2486 10.4638 25.7502C12.9856 26.2518 15.5994 25.9944 17.9749 25.0104C20.3503 24.0265 22.3806 22.3602 23.8091 20.2224C25.2376 18.0846 26 15.5712 26 13C25.9964 9.5533 24.6256 6.24881 22.1884 3.81163C19.7512 1.37445 16.4467 0.00363977 13 0ZM13 2C15.1312 1.99774 17.2166 2.61815 19 3.785V6.25L16.2288 9.4675L12.295 10L12.2563 9.9725L9.7975 8.365C9.57951 8.21144 9.33302 8.10303 9.07251 8.04613C8.81201 7.98923 8.54276 7.985 8.28059 8.03368C8.01843 8.08236 7.76865 8.18298 7.54594 8.32961C7.32323 8.47624 7.13208 8.66592 6.98375 8.8875L4.36625 12.8C4.1482 13.126 4.03083 13.509 4.02875 13.9012L4 18.43L3.59125 18.6987C2.58077 17.0304 2.03206 15.1234 2.00135 13.1732C1.97064 11.2229 2.45905 9.29959 3.41651 7.60028C4.37397 5.90097 5.76605 4.4868 7.45008 3.50271C9.13411 2.51862 11.0495 2 13 2ZM4.78625 20.3087L5.10125 20.1025C5.37632 19.9211 5.60229 19.6745 5.75909 19.3846C5.91588 19.0948 5.99864 18.7708 6 18.4412L6.02625 13.9125L8.64625 10C8.65909 10.0099 8.67244 10.0191 8.68625 10.0275L11.145 11.6362C11.5571 11.9271 12.0641 12.0508 12.5638 11.9825L16.5 11.4487C16.9854 11.384 17.4302 11.1433 17.75 10.7725L20.5212 7.5525C20.8312 7.18938 21.001 6.72739 21 6.25V5.45875C22.3526 6.88974 23.2956 8.65802 23.7304 10.5785C24.1651 12.499 24.0756 14.501 23.4713 16.375L21.4538 14.53C21.1733 14.2726 20.8252 14.1005 20.4503 14.0341C20.0754 13.9676 19.6894 14.0096 19.3375 14.155L15.53 15.7362C15.2116 15.8699 14.9331 16.0833 14.7211 16.3559C14.5092 16.6284 14.371 16.951 14.32 17.2925L14.0213 19.3162C13.9494 19.8034 14.0598 20.2998 14.3313 20.7106C14.6028 21.1214 15.0162 21.4176 15.4925 21.5425L18.175 22.25L18.47 22.5462C16.2795 23.8031 13.7229 24.2667 11.2305 23.8592C8.73816 23.4517 6.46235 22.1978 4.78625 20.3087ZM20.125 21.375L19.5875 20.8362C19.3368 20.5846 19.0235 20.4042 18.68 20.3137L16 19.6062L16.2988 17.5825L20.105 16L22.625 18.31C21.9827 19.4737 21.1358 20.5119 20.125 21.375Z" fill="currentColor"/>
</svg>
