<svg  viewBox="0 0 26 26" fill="none" xmlns="http://www.w3.org/2000/svg">
<path id="Vector" d="M22 10.6364C22 10.9498 21.8946 11.2504 21.7071 11.472C21.5196 11.6937 21.2652 11.8182 21 11.8182H16C15.7348 11.8182 15.4804 11.6937 15.2929 11.472C15.1054 11.2504 15 10.9498 15 10.6364C15 10.3229 15.1054 10.0223 15.2929 9.80069C15.4804 9.57906 15.7348 9.45455 16 9.45455H21C21.2652 9.45455 21.5196 9.57906 21.7071 9.80069C21.8946 10.0223 22 10.3229 22 10.6364ZM21 14.1818H16C15.7348 14.1818 15.4804 14.3063 15.2929 14.528C15.1054 14.7496 15 15.0502 15 15.3636C15 15.6771 15.1054 15.9777 15.2929 16.1993C15.4804 16.4209 15.7348 16.5455 16 16.5455H21C21.2652 16.5455 21.5196 16.4209 21.7071 16.1993C21.8946 15.9777 22 15.6771 22 15.3636C22 15.0502 21.8946 14.7496 21.7071 14.528C21.5196 14.3063 21.2652 14.1818 21 14.1818ZM26 2.36364V23.6364C26 24.2632 25.7893 24.8644 25.4142 25.3077C25.0391 25.751 24.5304 26 24 26H2C1.46957 26 0.960859 25.751 0.585786 25.3077C0.210714 24.8644 0 24.2632 0 23.6364V2.36364C0 1.73676 0.210714 1.13556 0.585786 0.692293C0.960859 0.249025 1.46957 0 2 0H24C24.5304 0 25.0391 0.249025 25.4142 0.692293C25.7893 1.13556 26 1.73676 26 2.36364ZM24 23.6364V2.36364H2V23.6364H24ZM13.9675 18.6136C14.0338 18.9173 13.9953 19.2396 13.8605 19.5097C13.7257 19.7798 13.5057 19.9756 13.2488 20.054C12.9918 20.1323 12.7191 20.0869 12.4905 19.9276C12.262 19.7683 12.0963 19.5082 12.03 19.2045C11.7013 17.6889 10.3975 16.5455 8.99875 16.5455C7.6 16.5455 6.2975 17.6889 5.9675 19.2045C5.9012 19.5082 5.73554 19.7683 5.50698 19.9276C5.27842 20.0869 5.00568 20.1323 4.74875 20.054C4.49182 19.9756 4.27176 19.7798 4.13696 19.5097C4.00217 19.2396 3.9637 18.9173 4.03 18.6136C4.3545 17.1862 5.12157 15.9554 6.17875 15.1657C5.61696 14.5057 5.23363 13.6634 5.07736 12.7457C4.92109 11.8279 4.99891 10.8759 5.30096 10.0105C5.60301 9.14508 6.11568 8.40512 6.774 7.88444C7.43231 7.36375 8.20661 7.08579 8.99875 7.08579C9.79089 7.08579 10.5652 7.36375 11.2235 7.88444C11.8818 8.40512 12.3945 9.14508 12.6965 10.0105C12.9986 10.8759 13.0764 11.8279 12.9201 12.7457C12.7639 13.6634 12.3805 14.5057 11.8188 15.1657C12.8771 15.9542 13.6448 17.1855 13.9688 18.6136H13.9675ZM9 14.1818C9.39556 14.1818 9.78224 14.0432 10.1111 13.7835C10.44 13.5238 10.6964 13.1546 10.8478 12.7227C10.9991 12.2908 11.0387 11.8156 10.9616 11.3571C10.8844 10.8986 10.6939 10.4774 10.4142 10.1468C10.1345 9.81628 9.77814 9.59116 9.39018 9.49996C9.00222 9.40876 8.60009 9.45557 8.23463 9.63447C7.86918 9.81336 7.55682 10.1163 7.33706 10.505C7.1173 10.8937 7 11.3507 7 11.8182C7 12.4451 7.21071 13.0463 7.58579 13.4895C7.96086 13.9328 8.46957 14.1818 9 14.1818Z" fill="currentColor"/>
</svg>
