<svg  viewBox="0 0 26 26" fill="none" xmlns="http://www.w3.org/2000/svg">
<path id="Vector" d="M24 0H2C1.46957 0 0.960859 0.249025 0.585786 0.692293C0.210714 1.13556 0 1.73676 0 2.36364V23.6364C0 24.2632 0.210714 24.8644 0.585786 25.3077C0.960859 25.751 1.46957 26 2 26H24C24.5304 26 25.0391 25.751 25.4142 25.3077C25.7893 24.8644 26 24.2632 26 23.6364V2.36364C26 1.73676 25.7893 1.13556 25.4142 0.692293C25.0391 0.249025 24.5304 0 24 0ZM24 2.36364V17.5426L20.7412 13.6928C20.5555 13.4733 20.335 13.2991 20.0923 13.1803C19.8497 13.0615 19.5896 13.0004 19.3269 13.0004C19.0642 13.0004 18.8041 13.0615 18.5614 13.1803C18.3187 13.2991 18.0982 13.4733 17.9125 13.6928L15.4125 16.6474L9.9125 10.1474C9.53747 9.70445 9.02896 9.45564 8.49875 9.45564C7.96854 9.45564 7.46003 9.70445 7.085 10.1474L2 16.1569V2.36364H24ZM2 19.5L8.5 11.8182L18.5 23.6364H2V19.5ZM24 23.6364H21.3288L16.8288 18.3182L19.3288 15.3636L24 20.8857V23.6364ZM15 8.86364C15 8.51302 15.088 8.17029 15.2528 7.87876C15.4176 7.58724 15.6519 7.36002 15.926 7.22585C16.2001 7.09168 16.5017 7.05657 16.7926 7.12497C17.0836 7.19337 17.3509 7.36221 17.5607 7.61013C17.7704 7.85805 17.9133 8.17392 17.9712 8.51779C18.0291 8.86167 17.9993 9.21811 17.8858 9.54203C17.7723 9.86595 17.58 10.1428 17.3334 10.3376C17.0867 10.5324 16.7967 10.6364 16.5 10.6364C16.1022 10.6364 15.7206 10.4496 15.4393 10.1171C15.158 9.78469 15 9.33379 15 8.86364Z" fill="currentColor"/>
</svg>
