<svg  viewBox="0 0 26 26" fill="none" xmlns="http://www.w3.org/2000/svg">
<path id="Vector" d="M26 13.6846C26 14.0475 25.8859 14.3955 25.6827 14.6522C25.4796 14.9088 25.204 15.053 24.9167 15.053H10.8338C10.5465 15.053 10.271 14.9088 10.0678 14.6522C9.86467 14.3955 9.75053 14.0475 9.75053 13.6846C9.75053 13.3217 9.86467 12.9736 10.0678 12.717C10.271 12.4604 10.5465 12.3162 10.8338 12.3162H24.9167C25.204 12.3162 25.4796 12.4604 25.6827 12.717C25.8859 12.9736 26 13.3217 26 13.6846ZM10.8338 4.1059H24.9167C25.204 4.1059 25.4796 3.96174 25.6827 3.70511C25.8859 3.44849 26 3.10044 26 2.73752C26 2.37461 25.8859 2.02655 25.6827 1.76993C25.4796 1.51331 25.204 1.36914 24.9167 1.36914H10.8338C10.5465 1.36914 10.271 1.51331 10.0678 1.76993C9.86467 2.02655 9.75053 2.37461 9.75053 2.73752C9.75053 3.10044 9.86467 3.44849 10.0678 3.70511C10.271 3.96174 10.5465 4.1059 10.8338 4.1059ZM24.9167 23.2632H1.08415C0.796841 23.2632 0.521301 23.4074 0.318143 23.664C0.114985 23.9206 0.00085206 24.2687 0.00085206 24.6316C0.00085206 24.9945 0.114985 25.3426 0.318143 25.5992C0.521301 25.8558 0.796841 26 1.08415 26H24.9167C25.204 26 25.4796 25.8558 25.6827 25.5992C25.8859 25.3426 26 24.9945 26 24.6316C26 24.2687 25.8859 23.9206 25.6827 23.664C25.4796 23.4074 25.204 23.2632 24.9167 23.2632ZM0.317717 16.0211C0.418326 16.1483 0.537801 16.2492 0.669312 16.3181C0.800822 16.387 0.941788 16.4224 1.08415 16.4224C1.22651 16.4224 1.36748 16.387 1.49899 16.3181C1.6305 16.2492 1.74997 16.1483 1.85058 16.0211L7.26707 9.17918C7.36779 9.05209 7.4477 8.90117 7.50221 8.73505C7.55673 8.56894 7.58479 8.39087 7.58479 8.21105C7.58479 8.03122 7.55673 7.85316 7.50221 7.68704C7.4477 7.52092 7.36779 7.37 7.26707 7.24292L1.85058 0.401012C1.64731 0.144248 1.37162 0 1.08415 0C0.796682 0 0.520987 0.144248 0.317717 0.401012C0.114446 0.657776 0.000249755 1.00602 0.000249755 1.36914C0.000249755 1.73226 0.114446 2.08051 0.317717 2.33727L4.96913 8.21105L0.317717 14.0848C0.216996 14.2119 0.137093 14.3628 0.0825765 14.5289C0.0280603 14.6951 0 14.8731 0 15.053C0 15.2328 0.0280603 15.4108 0.0825765 15.577C0.137093 15.7431 0.216996 15.894 0.317717 16.0211Z" fill="currentColor"/>
</svg>
