<svg  viewBox="0 0 26 26" fill="none" xmlns="http://www.w3.org/2000/svg">
<path id="Vector" d="M23.8333 8.66667H19.5V5.77778C19.5 4.24542 18.8152 2.77582 17.5962 1.69227C16.3772 0.608728 14.7239 0 13 0C11.2761 0 9.62279 0.608728 8.40381 1.69227C7.18482 2.77582 6.5 4.24542 6.5 5.77778V8.66667H2.16667C1.59203 8.66667 1.04093 8.86958 0.634602 9.23076C0.228273 9.59194 0 10.0818 0 10.5926V24.0741C0 24.5849 0.228273 25.0747 0.634602 25.4359C1.04093 25.7971 1.59203 26 2.16667 26H23.8333C24.408 26 24.9591 25.7971 25.3654 25.4359C25.7717 25.0747 26 24.5849 26 24.0741V10.5926C26 10.0818 25.7717 9.59194 25.3654 9.23076C24.9591 8.86958 24.408 8.66667 23.8333 8.66667ZM8.66667 5.77778C8.66667 4.7562 9.12321 3.77647 9.93587 3.05411C10.7485 2.33174 11.8507 1.92593 13 1.92593C14.1493 1.92593 15.2515 2.33174 16.0641 3.05411C16.8768 3.77647 17.3333 4.7562 17.3333 5.77778V8.66667H8.66667V5.77778ZM23.8333 24.0741H2.16667V10.5926H23.8333V24.0741ZM14.625 17.3333C14.625 17.619 14.5297 17.8983 14.3511 18.1358C14.1726 18.3734 13.9188 18.5585 13.6219 18.6678C13.3249 18.7772 12.9982 18.8058 12.683 18.75C12.3678 18.6943 12.0782 18.5567 11.851 18.3547C11.6237 18.1527 11.4689 17.8953 11.4062 17.6151C11.3435 17.3349 11.3757 17.0445 11.4987 16.7806C11.6217 16.5166 11.83 16.291 12.0972 16.1323C12.3644 15.9736 12.6786 15.8889 13 15.8889C13.431 15.8889 13.8443 16.0411 14.149 16.312C14.4538 16.5828 14.625 16.9502 14.625 17.3333Z" fill="currentColor"/>
</svg>
