<svg xmlns="http://www.w3.org/2000/svg" viewBox="0 0 16 16" fill="none">
  <path fill-rule="evenodd" clip-rule="evenodd" d="M11.9512 0.5C13.024 0.5 14.056 0.941667 14.8152 1.73417C15.5752 2.525 16 3.59167 16 4.70833V11.2917C16 13.6167 14.184 15.5 11.9512 15.5H4.048C1.8152 15.5 0 13.6167 0 11.2917V4.70833C0 2.38333 1.8072 0.5 4.048 0.5H11.9512ZM13.224 5.94987L13.288 5.8832C13.4792 5.64153 13.4792 5.29153 13.2792 5.04987C13.168 4.9257 13.0152 4.84987 12.856 4.8332C12.688 4.82403 12.528 4.8832 12.4072 4.99987L8.79999 7.99987C8.33599 8.4007 7.67119 8.4007 7.19999 7.99987L3.59999 4.99987C3.35119 4.8082 3.00719 4.8332 2.79999 5.0582C2.58399 5.2832 2.55999 5.64153 2.74319 5.89153L2.84799 5.99987L6.48799 8.9582C6.93599 9.32487 7.47919 9.52487 8.04799 9.52487C8.61519 9.52487 9.16799 9.32487 9.61519 8.9582L13.224 5.94987Z" fill="currentColor"/>
</svg>