<svg viewBox="0 0 26 26" fill="none" xmlns="http://www.w3.org/2000/svg">
<path id="Vector" d="M13 5.57148C11.8313 5.57148 10.6888 5.84379 9.71708 6.35395C8.74534 6.86412 7.98796 7.58925 7.54071 8.43763C7.09347 9.28601 6.97645 10.2195 7.20445 11.1202C7.43245 12.0208 7.99524 12.8481 8.82164 13.4974C9.64804 14.1467 10.7009 14.5889 11.8472 14.7681C12.9934 14.9472 14.1816 14.8553 15.2613 14.5039C16.3411 14.1525 17.2639 13.5574 17.9132 12.7938C18.5625 12.0303 18.9091 11.1327 18.9091 10.2144C18.9091 8.98301 18.2865 7.80207 17.1784 6.93136C16.0702 6.06065 14.5672 5.57148 13 5.57148ZM13 13.0001C12.2988 13.0001 11.6133 12.8367 11.0303 12.5306C10.4472 12.2245 9.99277 11.7895 9.72443 11.2804C9.45608 10.7714 9.38587 10.2113 9.52267 9.67092C9.65947 9.13054 9.99714 8.63416 10.493 8.24457C10.9888 7.85498 11.6206 7.58966 12.3083 7.48217C12.9961 7.37468 13.7089 7.42985 14.3568 7.6407C15.0046 7.85154 15.5584 8.2086 15.9479 8.66671C16.3375 9.12483 16.5455 9.66342 16.5455 10.2144C16.5455 10.9532 16.1719 11.6618 15.507 12.1842C14.8421 12.7066 13.9403 13.0001 13 13.0001ZM13 0C9.55339 0.00307213 6.24906 1.08021 3.81193 2.99512C1.3748 4.91002 0.00390995 7.50631 0 10.2144C0 13.8591 2.14352 17.722 6.20455 21.3864C8.0293 23.0422 10.0831 24.5333 12.3278 25.832C12.5266 25.9413 12.7633 26 13.0059 26C13.2485 26 13.4853 25.9413 13.684 25.832C15.9246 24.5327 17.9744 23.0417 19.7955 21.3864C23.8506 17.722 26 13.8591 26 10.2144C25.9961 7.50631 24.6252 4.91002 22.1881 2.99512C19.7509 1.08021 16.4466 0.00307213 13 0ZM13 23.911C10.5581 22.402 2.36364 16.8595 2.36364 10.2144C2.36364 7.99791 3.48425 5.87222 5.47895 4.30494C7.47366 2.73765 10.1791 1.85716 13 1.85716C15.8209 1.85716 18.5263 2.73765 20.521 4.30494C22.5157 5.87222 23.6364 7.99791 23.6364 10.2144C23.6364 16.8572 15.4419 22.402 13 23.911Z" fill="currentColor"/>
</svg>
