<svg xmlns="http://www.w3.org/2000/svg" viewBox="0 0 16 16" fill="none">
  <path d="M12.9335 9.90349C12.3961 9.78789 11.971 10.0374 11.5946 10.2553C11.2091 10.4798 10.4761 11.0744 10.056 10.9222C7.90487 10.0365 5.88171 8.15375 5.00591 5.99402C4.85155 5.5649 5.4434 4.82725 5.66626 4.43722C5.88253 4.05966 6.12686 3.63055 6.01543 3.08916C5.91472 2.60266 4.61217 0.945232 4.15158 0.491997C3.84781 0.192612 3.53662 0.0279506 3.21718 0.00133859C2.01616 -0.0502221 0.674813 1.55232 0.439562 1.9357C-0.149804 2.75318 -0.146502 3.84095 0.449467 5.1599C1.88574 8.70262 7.31798 14.0491 10.874 15.5394C11.5302 15.8463 12.1303 16.0001 12.6693 16.0001C13.1968 16.0001 13.6665 15.8529 14.0701 15.561C14.3747 15.3856 16.0429 13.9776 15.9992 12.7443C15.9727 12.43 15.8085 12.1156 15.513 11.8112C15.0631 11.3464 13.4163 10.0049 12.9335 9.90349Z" fill="currentColor"/>
</svg>