<svg xmlns="http://www.w3.org/2000/svg" viewBox="0 0 16 16" fill="none">
  <path d="M4.81137 7.27136C4.64994 6.9809 4.39664 6.75227 4.09122 6.62135C3.78579 6.49043 3.44554 6.46464 3.12387 6.54802C2.8022 6.63139 2.51732 6.81923 2.31396 7.08203C2.11059 7.34483 2.00024 7.66773 2.00024 8.00003C2.00024 8.33233 2.11059 8.65522 2.31396 8.91803C2.51732 9.18083 2.8022 9.36866 3.12387 9.45204C3.44554 9.53542 3.78579 9.50963 4.09122 9.37871C4.39664 9.24779 4.64994 9.01915 4.81137 8.7287M4.81137 7.27136C4.93137 7.48736 5.00003 7.73536 5.00003 8.00003C5.00003 8.26469 4.93137 8.51336 4.81137 8.7287M4.81137 7.27136L11.1887 3.72869M4.81137 8.7287L11.1887 12.2714M11.1887 3.72869C11.2822 3.90479 11.4099 4.06047 11.5642 4.18665C11.7186 4.31282 11.8966 4.40696 12.0878 4.46355C12.279 4.52014 12.4795 4.53804 12.6777 4.51622C12.8759 4.4944 13.0677 4.4333 13.242 4.33647C13.4163 4.23964 13.5695 4.10904 13.6927 3.9523C13.816 3.79557 13.9067 3.61583 13.9596 3.42362C14.0126 3.2314 14.0267 3.03056 14.0011 2.83283C13.9756 2.63509 13.9108 2.44445 13.8107 2.27203C13.6134 1.93226 13.2907 1.68345 12.9119 1.5791C12.5331 1.47475 12.1285 1.52319 11.7851 1.714C11.4416 1.90481 11.1867 2.22275 11.0752 2.59949C10.9637 2.97623 11.0044 3.38168 11.1887 3.72869ZM11.1887 12.2714C11.093 12.4436 11.0322 12.633 11.0097 12.8288C10.9872 13.0245 11.0035 13.2228 11.0576 13.4123C11.1118 13.6017 11.2027 13.7787 11.3252 13.933C11.4477 14.0873 11.5995 14.216 11.7717 14.3117C11.944 14.4074 12.1334 14.4682 12.3291 14.4907C12.5249 14.5132 12.7231 14.4969 12.9126 14.4428C13.1021 14.3886 13.279 14.2977 13.4333 14.1752C13.5877 14.0527 13.7163 13.9009 13.812 13.7287C14.0053 13.3808 14.0524 12.9704 13.9431 12.5878C13.8338 12.2051 13.5769 11.8816 13.229 11.6884C12.8812 11.4951 12.4708 11.448 12.0881 11.5573C11.7055 11.6666 11.382 11.9235 11.1887 12.2714Z" stroke="currentColor" stroke-width="1.0625" stroke-linecap="round" stroke-linejoin="round"/>
</svg>