<svg  viewBox="0 0 26 26" fill="none" xmlns="http://www.w3.org/2000/svg">
<path id="Vector" d="M23.8333 0H2.16667C1.59203 0 1.04093 0.219146 0.634602 0.609227C0.228273 0.999309 0 1.52837 0 2.08003V9.72155C0 21.371 10.2673 25.236 12.3229 25.8925C12.762 26.0358 13.238 26.0358 13.6771 25.8925C15.7354 25.236 26 21.371 26 9.72155V2.08003C26 1.52837 25.7717 0.999309 25.3654 0.609227C24.9591 0.219146 24.408 0 23.8333 0ZM23.8333 9.72285C23.8333 19.9176 14.8484 23.3237 13 23.9165C11.1678 23.3302 2.16667 19.9267 2.16667 9.72285V2.08003H23.8333V9.72285ZM6.81687 13.216C6.6136 13.0209 6.4994 12.7562 6.4994 12.4802C6.4994 12.2042 6.6136 11.9395 6.81687 11.7444C7.02015 11.5492 7.29586 11.4396 7.58333 11.4396C7.87081 11.4396 8.14651 11.5492 8.34979 11.7444L10.8333 14.1286L17.6502 7.58432C17.7509 7.48769 17.8704 7.41104 18.0019 7.35874C18.1334 7.30645 18.2743 7.27953 18.4167 7.27953C18.559 7.27953 18.7 7.30645 18.8315 7.35874C18.963 7.41104 19.0825 7.48769 19.1831 7.58432C19.2838 7.68094 19.3636 7.79566 19.4181 7.92191C19.4726 8.04816 19.5006 8.18348 19.5006 8.32013C19.5006 8.45678 19.4726 8.5921 19.4181 8.71835C19.3636 8.8446 19.2838 8.95931 19.1831 9.05594L11.5998 16.3361C11.4992 16.4327 11.3797 16.5095 11.2482 16.5618C11.1167 16.6141 10.9757 16.6411 10.8333 16.6411C10.691 16.6411 10.55 16.6141 10.4185 16.5618C10.287 16.5095 10.1675 16.4327 10.0669 16.3361L6.81687 13.216Z" fill="currentColor"/>
</svg>
